<?xml version="1.0" standalone="no"?>
<!DOCTYPE svg PUBLIC "-//W3C//DTD SVG 20010904//EN"
 "http://www.w3.org/TR/2001/REC-SVG-20010904/DTD/svg10.dtd">
<svg version="1.0" xmlns="http://www.w3.org/2000/svg"
 width="384.000000pt" height="384.000000pt" viewBox="0 0 384.000000 384.000000"
 preserveAspectRatio="xMidYMid meet">
<metadata>
Created by potrace 1.14, written by Peter Selinger 2001-2017
</metadata>
<g transform="translate(0.000000,384.000000) scale(0.100000,-0.100000)"
fill="#000000" stroke="none">
<path d="M1260 3060 l-655 -379 0 -761 0 -761 658 -380 658 -380 657 380 657
379 0 762 0 762 -655 379 c-360 208 -657 378 -660 378 -3 0 -300 -170 -660
-379z m698 -828 c17 -101 32 -186 34 -188 2 -1 59 13 126 33 82 25 119 40 112
47 -6 6 -42 1 -106 -18 -56 -15 -101 -23 -106 -18 -5 5 -20 73 -33 151 -13 78
-27 152 -30 164 -5 21 611 -596 996 -995 l170 -177 -363 210 c-231 133 -370
208 -383 206 -17 -3 -1581 -407 -1640 -423 -11 -3 140 86 335 199 339 196 406
239 394 258 -3 5 1 7 8 4 7 -3 68 40 136 94 67 55 135 109 150 121 l27 22 -30
25 c-17 14 -62 57 -102 95 l-72 69 167 601 167 601 6 -449 c5 -444 6 -451 37
-632z m-562 706 c51 -29 94 -55 94 -58 0 -3 -139 -86 -310 -184 l-310 -178 0
-349 c0 -192 -2 -349 -5 -349 -2 0 -43 23 -90 50 l-85 51 0 357 0 357 303 177
c166 97 304 176 305 177 2 1 46 -23 98 -51z m1502 -158 l252 -145 -3 -359 -2
-359 -85 -48 -85 -49 -5 351 -5 352 -308 178 -308 177 73 42 c40 23 82 48 93
55 23 15 -10 32 383 -195z m-1308 -702 c0 -7 32 -43 71 -80 64 -62 70 -70 57
-87 -25 -35 -251 -214 -246 -195 68 249 104 374 110 374 5 0 8 -5 8 -12z m950
-1117 l0 -109 -307 -176 c-176 -102 -312 -175 -321 -171 -8 3 -149 83 -313
178 l-299 172 0 102 c0 64 4 103 10 103 6 0 143 -76 304 -170 162 -93 299
-170 305 -170 6 0 147 79 313 175 167 96 304 175 306 175 1 0 2 -49 2 -109z"/>
<path d="M1891 2417 c-6 -15 -22 -93 -35 -174 -14 -80 -29 -150 -34 -155 -4
-4 -48 3 -97 17 -95 26 -125 30 -125 17 0 -8 242 -83 248 -77 7 6 63 378 59
389 -3 6 -10 -1 -16 -17z"/>
<path d="M2152 2009 l-94 -90 24 -18 c13 -10 77 -62 143 -116 136 -109 158
-124 148 -99 -3 9 -60 61 -127 116 -67 55 -125 107 -129 115 -6 10 9 30 53 71
57 52 101 113 83 112 -5 -1 -50 -41 -101 -91z"/>
<path d="M1660 1726 c-131 -50 -177 -72 -158 -74 14 -2 88 20 163 48 75 28
144 50 153 48 12 -2 23 -27 38 -84 22 -81 42 -130 50 -121 6 5 -44 224 -55
243 -4 8 -68 -12 -191 -60z"/>
<path d="M1981 1762 c-27 -99 -52 -215 -47 -219 8 -9 28 40 50 121 15 58 26
82 38 84 10 2 79 -20 154 -48 74 -28 148 -50 162 -48 20 2 -11 18 -113 57 -77
30 -161 62 -187 72 l-47 18 -10 -37z"/>
</g>
</svg>
